<svg xmlns="http://www.w3.org/2000/svg" aria-hidden="true" style="position:absolute;width:0;height:0;overflow:hidden">
  <defs>
    <symbol id="icon-house" viewBox="0 0 32 32">
      <path d="M.314.314h31.373v31.373H.314V.314z"/>
    </symbol>
    <symbol id="icon-human-resources" viewBox="0 0 32 32">
      <path d="M.314.314h31.373v31.373H.314V.314z"/>
    </symbol>
    <symbol id="icon-haze" viewBox="0 0 32 32">
      <path d="M.281.281H31.72V31.72H.281V.281z"/>
    </symbol>
    <symbol id="icon-money-bag" viewBox="0 0 32 32">
      <path d="M.333.333h31.333v31.333H.333V.333z"/>
    </symbol>
    <symbol id="icon-checkbox" viewBox="0 0 40 32">
      <path d="M33.782 1.02a3.668 3.668 0 0 1 5.115.039 3.712 3.712 0 0 1 .135 5.141L19.454 30.817a3.674 3.674 0 0 1-4.074.914 3.675 3.675 0 0 1-1.226-.815L1.17 17.862A3.693 3.693 0 0 1-.001 15.22a3.714 3.714 0 0 1 1.077-2.682 3.664 3.664 0 0 1 4.1-.763 3.68 3.68 0 0 1 1.195.857l10.275 10.325 17.042-21.83c.031-.038.063-.074.098-.109h-.005z" />
    </symbol>
  </defs>
</svg>
